<svg xmlns="http://www.w3.org/2000/svg" xmlns:xlink="http://www.w3.org/1999/xlink" width="123" height="123" viewBox="0 0 123 123" fill="none">
<path d="M87.1249 15.375L35.875 15.375C24.5532 15.375 15.375 24.5532 15.375 35.875L15.375 87.1249C15.375 98.4468 24.5532 107.625 35.875 107.625L87.1249 107.625C98.4468 107.625 107.625 98.4468 107.625 87.1249L107.625 35.875C107.625 24.5532 98.4468 15.375 87.1249 15.375ZM62.5 35.875L62.5 60.5L87.125 60.5L87.125 62.5L62.5 62.5L62.5 87.125L60.5 87.125L60.5 62.5L35.875 62.5L35.875 60.5L60.5 60.5L60.5 35.875L62.5 35.875Z" fill-rule="evenodd"  fill="#222222" fill-opacity="0.8">
</path>
</svg>
