<svg xmlns="http://www.w3.org/2000/svg" xmlns:xlink="http://www.w3.org/1999/xlink" width="68" height="55.8065185546875" viewBox="0 0 68 55.8065185546875" fill="none">
<path   fill="rgba(51, 54, 63, 1)"  d="M29.3601 33.08L12.8001 16.54L2.1999 27.153L18.7599 43.693L29.3601 33.08ZM12.8001 27.153L29.3601 10.613L18.7599 1.52588e-05L2.1999 16.54L12.8001 27.153ZM7.5 29.3465L40.6538 29.3465C47.4724 29.3465 53 34.8741 53 41.6927L53 48.3065L68 48.3065L68 41.6927C68 26.5898 55.7567 14.3465 40.6538 14.3465L7.5 14.3465L7.5 29.3465ZM2.1999 27.153L7.5 21.8465L2.1999 16.54C-0.733304 20.0777 -0.733303 23.6154 2.1999 27.153ZM60.5 40.8065C56.3579 40.8065 53 44.1644 53 48.3065C53 52.4487 56.3579 55.8065 60.5 55.8065C64.6421 55.8065 68 52.4487 68 48.3065C68 44.1644 64.6421 40.8065 60.5 40.8065Z">
</path>
</svg>
