<svg xmlns="http://www.w3.org/2000/svg" xmlns:xlink="http://www.w3.org/1999/xlink" width="543.90966796875" height="335.87237548828125" viewBox="0 0 543.90966796875 335.87237548828125" fill="none">
<path d="M407.853 162.582C458.313 185.328 511.649 195.39 543.91 162.582C543.91 162.582 542.405 60.2397 542.405 2.09314C472.361 2.09314 361.505 2.09314 299.156 2.09314C270.096 2.09314 232.324 0.578141 195.106 0.578141C117.825 0.578141 49.1133 0.578141 1.91329 0.578141C-4.44629 0.360769 8.30698 -0.606235 1.91329 0.578141C1.91329 35.7716 1.91329 107.697 1.91329 195.589C1.91329 285.888 -14.5503 346.189 49.1106 334.403C76.7727 329.282 99.7276 311.448 115.548 285.883C140.211 293.72 167.042 298.023 195.106 298.023C297.854 298.023 384.099 240.375 407.853 162.582Z" fill-rule="evenodd"  fill="#FFFFFF" >
</path>
</svg>
