<svg xmlns="http://www.w3.org/2000/svg" xmlns:xlink="http://www.w3.org/1999/xlink" width="382.87353515625" height="272.48919677734375" viewBox="0 0 382.87353515625 272.48919677734375" fill="none">
<path d="M381.58 272.04C386.07 272.209 377.066 272.96 381.58 272.04ZM-9.15527e-05 270.87C49.4507 270.87 127.712 270.87 171.73 270.87C192.247 270.87 218.914 272.04 245.19 272.04C299.75 272.04 348.257 272.04 381.58 272.04C381.58 244.692 381.58 68.2994 381.58 -3.05176e-05C312.452 -3.05176e-05 296.544 5.01416 269.05 24.01C220.18 63.5134 220.438 67.5246 190.95 120.5C105.938 100.525 70.4342 115.025 25.4799 184.52C25.4799 184.52 -9.15527e-05 225.685 -9.15527e-05 270.87Z" fill-rule="evenodd"  fill="#FFFFFF" >
</path>
</svg>
