<svg xmlns="http://www.w3.org/2000/svg" xmlns:xlink="http://www.w3.org/1999/xlink" width="183" height="118" viewBox="0 0 183 118" fill="none">
<rect x="0" y="0" width="180" height="118"   fill="#CCCCCC" >
</rect>
<g >
<path     fill="#000000"  d="M45.75 70.1L88.3 70.1L88.3 76.55Q88.3 77.7 87.9 78.75Q87.45 79.8 86.7 80.45Q86.05 81.2 84.95 81.65Q84.05 82.05 82.8 82.05L71.3 82.05L73.5 77.1L79.8 77.1Q80.45 77.1 80.85 76.65Q81.35 76.2 81.35 75.55L81.35 75.05L61.15 75.05L55.35 82.05L46.35 82.05L52.15 75.05L45.75 75.05L45.75 70.1ZM61.7 65.1Q62.65 65.1 63.05 64.25L53.3 64.25L53.3 68.65L46.35 68.65L46.35 52.95L66.15 52.95Q67.8 52.95 68.95 54.1Q70.1 55.25 70.1 56.85L70.1 64.5Q70.1 66.2 68.85 67.45Q67.7 68.65 65.9 68.65L58.2 68.65L60.1 65.1L61.7 65.1ZM82.8 47.4L89.05 47.4L89.05 52.05L44.95 52.05L44.95 47.4L51.2 47.4L50.35 45.9L57.65 45.9L58.5 47.4L75.5 47.4L76.4 45.9L83.65 45.9L82.8 47.4ZM74.05 64.65L79.15 64.65Q79.8 64.65 80.25 64.15Q80.75 63.75 80.75 63.05L80.75 52.8L87.5 52.8L87.5 64.1Q87.5 65 87.2 65.85Q86.75 66.8 86.15 67.3Q85.6 67.85 84.7 68.3Q83.8 68.65 82.9 68.65L72.15 68.65L74.05 64.65ZM71.95 53.35L78.5 53.35L78.5 63.5L71.95 63.5L71.95 53.35ZM53.3 61.25L63.25 61.25L63.25 60.15L53.3 60.15L53.3 61.25ZM53.3 55.95L53.3 57.05L63.25 57.05L63.25 56.6Q63.25 55.95 62.55 55.95L53.3 55.95ZM93.05 54.5L102.55 54.5L102.55 51.65L93.85 51.65L93.85 47.5L102.55 47.5L102.55 45.95L109.5 45.95L109.5 47.5L117.85 47.5L117.85 51.65L109.5 51.65L109.5 54.5L120.5 54.5L117.85 45.95L124.4 45.95L127.1 54.5L129.35 54.5L126.85 46.05L133.2 46.05L136.9 58.65L128.35 58.65L129.75 63.1L130.45 61.6L136.95 61.6L132.25 71.15L135.65 82.05L129.05 82.05L128.25 79.45L127 81.95L120.55 81.95L125.7 71.35L121.8 58.65L93.05 58.65L93.05 54.5ZM97.55 73.3L93.05 73.3L96.25 66.1L94.15 66.1L94.15 61.95L104.95 61.95L104.25 59.85L111 59.85L111.7 61.95L120.55 61.95L120.55 66.1L103 66.1L101.5 69.55L104.3 69.55L104.3 76.35Q104.3 77 104.775 77.45Q105.25 77.9 105.9 77.9L108.75 77.9L110.8 82.05L103.05 82.05Q101.9 82.05 100.9 81.625Q99.9 81.2 99.15 80.45Q98.4 79.7 97.975 78.7Q97.55 77.7 97.55 76.55L97.55 73.3ZM120.1 82.05L113.35 82.05L105.45 68.15L112.2 68.15L113.95 71.2L114.85 68.6L120.15 68.6L117.15 76.9L120.1 82.05Z">
</path>
</g>
</svg>
