<svg xmlns="http://www.w3.org/2000/svg" xmlns:xlink="http://www.w3.org/1999/xlink" width="47.05224609375" height="57.87353515625" viewBox="0 0 47.05224609375 57.87353515625" fill="none">
<path d="M34.3388 2.69031L26.4546 9.89356L36.9669 24.3001L42.223 13.4952L34.3388 2.69031Z"   fill="#FFFFFF" >
</path>
<path fill-rule="evenodd"  fill="rgba(255, 255, 255, 1)"  d="M24.4609 4.35258L4.20342 32.1142Q2.77335 34.0741 2.33796 36.4608L0.133503 48.5451C-0.949711 54.483 4.75622 59.3933 10.4663 57.4369L18.4519 54.7009Q19.9942 54.1725 21.3065 53.2051Q22.6188 52.2377 23.5798 50.9207L45.0146 21.5456Q46.0205 20.167 46.5426 18.5445Q47.0522 16.961 47.0522 15.2965Q47.0522 13.6319 46.5426 12.0484Q46.0205 10.4259 45.0146 9.04731L41.5889 4.35258C37.3543 -1.45075 28.6955 -1.45075 24.4609 4.35258ZM8.18396 43.42L9.2243 37.717C9.32165 37.1834 9.53829 36.6786 9.85804 36.2404L30.1155 8.47874C31.5541 6.50721 34.4957 6.50721 35.9343 8.47874L39.36 13.1735C40.2829 14.4383 40.2829 16.1546 39.36 17.4194L17.9252 46.7946C17.4899 47.3911 16.8817 47.8395 16.1831 48.0788L14.334 48.7123L13.9126 48.8567L8.19746 50.8148C7.54669 51.0377 6.89639 50.4781 7.01984 49.8014L8.10401 43.8582L8.18396 43.42Z">
</path>
</svg>
