<svg xmlns="http://www.w3.org/2000/svg" xmlns:xlink="http://www.w3.org/1999/xlink" width="89" height="89" viewBox="0 0 89 89" fill="none">
<path   fill="rgba(0, 0, 0, 1)"  d="M29.4938 40.6189L48.0355 22.0772L40.9644 15.0062L22.4227 33.5478L29.4938 40.6189ZM40.9644 22.0772L59.5061 40.6189L66.5771 33.5478L48.0355 15.0062L40.9644 22.0772ZM39.4999 18.5417L39.4999 51.9167L49.4999 51.9167L49.4999 18.5417L39.4999 18.5417ZM40.9644 15.0062L44.4999 18.5417L48.0355 15.0062C45.6784 13.0535 43.3214 13.0535 40.9644 15.0062ZM49.4999 51.9167C49.4999 49.1553 47.2613 46.9167 44.4999 46.9167C41.7385 46.9167 39.4999 49.1553 39.4999 51.9167C39.4999 54.6781 41.7385 56.9167 44.4999 56.9167C47.2613 56.9167 49.4999 54.6781 49.4999 51.9167Z">
</path>
<path   fill="rgba(0, 0, 0, 1)"  d="M23.5417 59.3334L23.5417 63.0417C23.5417 64.3764 24.6237 65.4584 25.9584 65.4584L63.0417 65.4584C64.3764 65.4584 65.4584 64.3764 65.4584 63.0417L65.4584 59.3334L75.4584 59.3334L75.4584 63.0417C75.4584 69.8992 69.8993 75.4584 63.0417 75.4584L25.9584 75.4584C19.1009 75.4584 13.5417 69.8992 13.5417 63.0417L13.5417 59.3334L23.5417 59.3334Z">
</path>
</svg>
