<svg xmlns="http://www.w3.org/2000/svg" xmlns:xlink="http://www.w3.org/1999/xlink" width="123" height="123" viewBox="0 0 123 123" fill="none">
<rect  x="0" y="0" width="123" height="123" rx="61.5"    fill="#F98988" >
</rect>
<path     fill="#FFFFFF" fill-opacity="0.83" d="M24.0002 64.6477C24.0279 72.8042 26.3427 80.7725 30.6569 87.5562C34.9973 94.3808 41.1663 99.7 48.384 102.841C55.6017 105.982 63.5438 106.804 71.2061 105.203C78.8683 103.601 85.9065 99.6488 91.4307 93.8449C96.9549 88.0411 100.717 80.6465 102.241 72.5963C103.765 64.546 102.983 56.2018 99.9932 48.6186C97.0036 41.0355 91.9408 34.5541 85.445 29.994C78.9948 25.4659 71.4192 23.0342 63.664 23.0004C63.5812 23 63.5 23.0672 63.5 23.15L63.5 34.47C63.5 34.5528 63.5521 34.6199 63.635 34.6203C69.2128 34.6481 74.6609 36.3987 79.3004 39.6557C83.9774 42.9389 87.6226 47.6056 89.7751 53.0654C91.9277 58.5253 92.4909 64.5331 91.3935 70.3293C90.2962 76.1255 87.5875 81.4496 83.6101 85.6283C79.6327 89.8071 74.5652 92.6529 69.0484 93.8059C63.5315 94.9588 57.8132 94.3671 52.6165 92.1055C47.4198 89.844 42.978 86.0142 39.853 81.1004C36.7561 76.2309 35.0901 70.5136 35.0604 64.6595C35.06 64.5767 34.9928 64.5 34.91 64.5L24.15 64.5C24.0672 64.5 24 64.5649 24.0002 64.6477Z">
</path>
</svg>
