<svg xmlns="http://www.w3.org/2000/svg" xmlns:xlink="http://www.w3.org/1999/xlink" width="262" height="273" viewBox="0 0 262 273" fill="none">
<path     fill="#B3DDF8"  d="M0 273L262 273L262 0L0 0L0 273Z">
</path>
<path d="M176.704 98.5042C164.812 130.132 142.275 151.466 126.366 146.155C110.458 140.843 107.202 110.897 119.094 79.2683C130.986 47.6399 153.522 26.3061 169.431 31.6179C185.34 36.9298 188.596 66.8758 176.704 98.5042Z"   fill="#F98988" >
</path>
<path d="M200.285 136.593C177.111 162.425 147.584 175.527 134.335 165.858C121.085 156.189 129.131 127.409 152.305 101.578C175.479 75.746 205.006 62.6437 218.255 72.313C231.505 81.9823 223.459 110.762 200.285 136.593Z"   fill="#F98988" >
</path>
<path d="M217.963 176.903C210.204 218.992 165.429 246.017 117.957 237.265C70.484 228.513 38.2902 187.299 46.0497 145.209C53.8093 103.12 98.5838 76.0949 146.056 84.8469C193.529 93.599 225.723 134.814 217.963 176.903Z"   fill="#FFFFFF" >
</path>
<path   fill="rgba(0, 0, 0, 1)"  d="M103.895 127.924L97.4462 162.905L87.6119 161.092L94.0609 126.111L103.895 127.924Z">
</path>
<path    stroke="rgba(0, 0, 0, 1)" stroke-width="10" stroke-linejoin="round"   d="M157.458 137.799L151.008 172.78">
</path>
<path d="M99.1189 228.619L87.8484 177.357L132.536 187.54L99.1189 228.619Z"   fill="#F2D151" >
</path>
<path    stroke="rgba(0, 0, 0, 1)" stroke-width="4"    d="M102.848 192.967L100.761 200.333">
</path>
<path    stroke="rgba(0, 0, 0, 1)" stroke-width="4"    d="M112.007 194.655L109.92 202.022">
</path>
<g >
<path     fill="#000000" fill-opacity="0.55" d="M190.878 109.525L195.484 109.566L200.501 100.304C201.409 98.5726 202.318 96.8415 203.323 94.7353L203.511 94.737C204.621 96.8619 205.545 98.6091 206.423 100.356L211.463 109.707L216.257 109.749L206.308 92.0826L215.857 75.2933L211.298 75.253L206.614 84.001C205.754 85.5915 205.083 87.0426 204.126 89.0552L203.938 89.0535C202.828 87.0226 202.135 85.5595 201.257 83.9536L196.634 75.1235L191.841 75.0811L201.093 91.8015L190.878 109.525Z">
</path>
</g>
<g >
<path     fill="#000000" fill-opacity="0.52" d="M147.302 81.996C154.448 82.2225 157.557 77.2684 157.758 70.9216L158.579 45.0346L153.931 44.8873L153.125 70.3246C152.949 75.8718 150.929 78.0589 146.981 77.9337C144.332 77.8498 142.321 76.5855 140.765 73.5847L137.391 75.8789C139.419 79.7451 142.654 81.8487 147.302 81.996Z">
</path>
</g>
</svg>
