<svg xmlns="http://www.w3.org/2000/svg" xmlns:xlink="http://www.w3.org/1999/xlink" width="94" height="113.3045654296875" viewBox="0 0 94 113.3045654296875" fill="none">
<path d="M64.1386 37.5501C58.7562 53.0741 48.5557 63.5453 41.3552 60.9381C34.1548 58.3309 32.6811 43.6326 38.0635 28.1087C43.446 12.5847 53.6464 2.11354 60.8469 4.72072C68.0473 7.3279 69.521 22.0261 64.1386 37.5501Z"   fill="#F98988" >
</path>
<path d="M74.8121 56.2452C64.3232 68.924 50.9589 75.3549 44.962 70.609C38.9652 65.8631 42.6068 51.7374 53.0956 39.0586C63.5845 26.3798 76.9488 19.9489 82.9456 24.6948C88.9425 29.4408 85.3009 43.5664 74.8121 56.2452Z"   fill="#F98988" >
</path>
<path d="M84.1696 75.8992C80.6575 96.5577 60.392 109.822 38.9052 105.527C17.4184 101.231 2.84699 81.0016 6.35908 60.3431C9.87116 39.6847 30.1367 26.4201 51.6235 30.7158C73.1104 35.0115 87.6817 55.2408 84.1696 75.8992Z"   fill="#FFFFFF" >
</path>
<path    stroke="rgba(0, 0, 0, 1)" stroke-width="7"    d="M28.9583 51.5454L26.0381 68.7147">
</path>
<path    stroke="rgba(0, 0, 0, 1)" stroke-width="7" stroke-linejoin="round"   d="M55.4272 56.837L52.5071 74.0064">
</path>
<path d="M29.0228 101.414L23.9215 76.2532L44.1479 81.2514L29.0228 101.414Z"   fill="#F2D151" >
</path>
<path    stroke="rgba(0, 0, 0, 1)" stroke-width="4"    d="M29.7468 81L28.804 84.6148">
</path>
<path    stroke="rgba(0, 0, 0, 1)" stroke-width="4"    d="M35.8557 83L34.9128 86.6148">
</path>
</svg>
