<svg xmlns="http://www.w3.org/2000/svg" xmlns:xlink="http://www.w3.org/1999/xlink" width="184" height="97" viewBox="0 0 184 97" fill="none">
<rect  x="32.333251953125" y="8.083251953125" width="32.33333206176758" height="52.541640281677246" rx="4"    fill="#222222" >
</rect>
<path    stroke="rgba(34, 34, 34, 1)" stroke-width="10" stroke-linejoin="round" stroke-linecap="round"  d="M24.25 44.4582C24.25 50.8897 26.8049 57.0578 31.3527 61.6056C35.9004 66.1533 42.0685 68.7082 48.5 68.7082C54.9315 68.7082 61.0996 66.1533 65.6473 61.6056C70.1951 57.0578 72.75 50.8897 72.75 44.4582">
</path>
<path    stroke="rgba(34, 34, 34, 1)" stroke-width="10" stroke-linejoin="round" stroke-linecap="round"  d="M48.5 84.8751L48.5 76.7917">
</path>
<g >
<path     fill="#000000"  d="M114.02 14.68L114.02 16.48L132.86 16.48L132.86 20.44L114.02 20.44L114.02 22.76L134.38 22.76L134.38 33.24Q134.38 34 134.08 34.68Q133.78 35.36 133.26 35.88Q132.74 36.4 132.04 36.7Q131.34 37 130.58 37L99.94 37L99.94 22.76L107.82 22.76L107.82 14.68L114.02 14.68ZM128.86 26.68L105.46 26.68L105.46 33.04L128.22 33.04Q128.5 33.04 128.68 32.86Q128.86 32.68 128.86 32.44L128.86 26.68ZM99.5 43.32L101.58 38.24L107.7 38.24L105.66 43.32L99.5 43.32ZM109.38 38.24L115.5 38.24L117.58 43.32L111.46 43.32L109.38 38.24ZM117.94 38.24L124.06 38.24L126.1 43.32L119.98 43.32L117.94 38.24ZM132.62 38.24L134.66 43.32L128.54 43.32L126.5 38.24L132.62 38.24ZM150.98 24.2L150.98 20.72L136.9 20.72L136.9 16.6L150.98 16.6L150.98 14.56L156.82 14.56L156.82 16.6L170.9 16.6L170.9 20.72L156.82 20.72L156.82 24.2L171.42 24.2L171.42 28.32L156.82 28.32L156.82 39.28L164.22 39.28Q164.58 39.28 164.82 39.02Q165.06 38.76 165.06 38.4L165.06 31.68L170.46 31.68L170.46 40.4Q170.46 41.64 169.58 42.52Q168.7 43.4 167.46 43.4L165.06 43.4L137.34 43.4L137.34 39.56L137.34 31.68L142.82 31.68L142.82 38.36L142.82 39.28L150.98 39.28L150.98 28.32L136.38 28.32L136.38 24.2L150.98 24.2ZM113.9 72.28L99.62 72.28L99.62 68.76L126.9 68.76L126.9 66.12L101.98 66.12L101.98 62.64L126.9 62.64L126.9 61.68Q126.9 61.16 126.54 60.8Q126.18 60.44 125.62 60.44L101.1 60.44L101.1 56.92L128.38 56.92Q129.3 56.92 130.1 57.26Q130.9 57.6 131.5 58.2Q132.1 58.8 132.44 59.6Q132.78 60.4 132.78 61.32L132.78 68.76L134.54 68.76L134.54 72.28L120.02 72.28L120.02 74.48L125.3 74.48L126.62 76.28L128.42 73.64L134.54 73.64L130.58 79.76L129.18 79.72L133.7 85.84L127.46 85.84L120.02 75.8L120.02 81.24Q120.02 82.16 119.66 82.98Q119.3 83.8 118.7 84.42Q118.1 85.04 117.28 85.4Q116.46 85.76 115.54 85.76L109.62 85.76L111.22 82.2L112.62 82.2Q113.18 82.2 113.54 81.84Q113.9 81.48 113.9 80.92L113.9 72.28ZM105.98 85.84L99.62 85.84L104.78 79.24L111.14 79.24L105.98 85.84ZM106.82 73.32L111.5 77.96L105.14 77.96L100.46 73.32L106.82 73.32ZM170.38 81.44Q170.38 82.36 170.04 83.16Q169.7 83.96 169.1 84.56Q168.5 85.16 167.7 85.5Q166.9 85.84 165.98 85.84L137.86 85.84L137.86 85.8L137.86 75.24L137.86 72.16L137.86 71.72L170.38 71.72L170.38 72.16L170.38 75.24L170.38 81.44ZM143.66 75.24L143.66 76.72L164.58 76.72L164.58 75.24L143.66 75.24ZM163.3 82.24Q163.86 82.24 164.22 81.88Q164.58 81.52 164.58 81L164.58 80.2L143.66 80.2L143.66 82.24L163.3 82.24ZM136.7 58.72L150.3 58.72L149.66 56.92L156.7 56.92L157.34 58.72L170.94 58.72L170.94 62.64L136.7 62.64L136.7 58.72ZM171.46 70.2L136.3 70.2L136.3 66.24L141.3 66.24L138.82 63.76L145.42 63.76L147.9 66.24L159.66 66.24L162.14 63.76L168.74 63.76L166.26 66.24L171.46 66.24L171.46 70.2Z">
</path>
</g>
</svg>
