<svg xmlns="http://www.w3.org/2000/svg" xmlns:xlink="http://www.w3.org/1999/xlink" width="65.5009765625" height="58" viewBox="0 0 65.5009765625 58" fill="none">
<path     fill="#222222"  d="M28.131 17.4481C29.8833 13.5798 30.7595 11.6456 32.183 11.3776C32.5573 11.3071 32.9442 11.3071 33.3185 11.3776C34.742 11.6456 35.6182 13.5798 37.3705 17.4481C38.3671 19.648 38.8653 20.7479 39.7977 21.496C40.0592 21.7058 40.343 21.8927 40.6453 22.054C41.7229 22.6291 43.0681 22.7358 45.7585 22.9492C50.3129 23.3103 52.5902 23.4909 53.2856 24.6406C53.4296 24.8788 53.5275 25.1366 53.5753 25.4034C53.8058 26.6915 52.1317 28.0401 48.7835 30.7374L47.8538 31.4865C46.2884 32.7475 45.5058 33.378 45.0531 34.1649C44.7815 34.6369 44.5994 35.1452 44.5141 35.6696C44.3719 36.5436 44.6011 37.4583 45.0595 39.2877L45.2232 39.9413C46.0453 43.222 46.4563 44.8624 45.9432 45.6687C45.4823 46.3929 44.6334 46.8566 43.6957 46.8962C42.6517 46.9404 41.1807 45.879 38.2386 43.7562C36.3003 42.3576 35.3312 41.6584 34.2553 41.3852C33.2721 41.1356 32.2294 41.1356 31.2462 41.3852C30.1704 41.6584 29.2012 42.3576 27.2629 43.7562C24.3209 45.879 22.8498 46.9404 21.8059 46.8962C20.8681 46.8566 20.0192 46.3929 19.5583 45.6687C19.0452 44.8624 19.4563 43.222 20.2783 39.9413L20.4421 39.2877C20.9004 37.4583 21.1296 36.5436 20.9874 35.6696C20.9021 35.1452 20.72 34.6369 20.4484 34.1649C19.9957 33.378 19.2131 32.7475 17.6477 31.4865L16.718 30.7374C13.3698 28.0402 11.6957 26.6915 11.9263 25.4034C11.974 25.1366 12.0719 24.8788 12.2159 24.6406C12.9114 23.4909 15.1886 23.3103 19.743 22.9492C22.4434 22.7358 23.7786 22.6291 24.8562 22.054C25.1585 21.8927 25.4423 21.7058 25.7039 21.496C26.6362 20.7479 27.1345 19.648 28.131 17.4481Z">
</path>
<path   fill="rgba(34, 34, 34, 1)"  d="M27.2201 17.0355M27.2201 17.0355Q28.0462 15.2118 28.402 14.472Q28.9858 13.258 29.4288 12.5385Q29.977 11.6481 30.5258 11.1528Q31.1991 10.5453 31.998 10.3948Q32.7508 10.2531 33.5035 10.3948Q34.3024 10.5453 34.9757 11.1528Q35.5245 11.6481 36.0727 12.5385Q36.5157 13.258 37.0995 14.472Q37.4553 15.2118 38.2814 17.0355L38.2814 17.0355Q38.7448 18.0585 38.9424 18.4745Q39.2489 19.1199 39.4776 19.5224Q39.9316 20.3214 40.4235 20.716Q40.744 20.9732 41.1161 21.1718Q41.7072 21.4873 42.7504 21.6491Q43.5208 21.7686 45.8376 21.9523Q47.9822 22.1224 48.8568 22.209Q50.2853 22.3506 51.1567 22.517Q52.2263 22.7212 52.8906 23.0412Q53.732 23.4466 54.1412 24.1231Q54.4548 24.6416 54.5596 25.2272Q54.7032 26.0292 54.287 26.8522Q53.966 27.487 53.2401 28.2373Q52.6591 28.8378 51.6215 29.712Q50.989 30.2448 49.4109 31.5162L49.4109 31.5162L48.4811 32.2652Q47.1377 33.3474 46.7146 33.7382Q46.1549 34.255 45.9199 34.6636Q45.6007 35.2184 45.5011 35.8302Q45.4301 36.2665 45.5473 36.952Q45.6377 37.481 46.0295 39.0446L46.1932 39.6983L46.1932 39.6983Q46.5807 41.2444 46.7286 41.8802Q46.9711 42.9218 47.0723 43.5812Q47.1974 44.3962 47.1606 44.9601Q47.1128 45.6933 46.7869 46.2055Q46.3029 46.966 45.4776 47.4168Q44.6739 47.8557 43.7379 47.8953Q43.1481 47.9203 42.4591 47.6568Q41.9025 47.4439 41.1604 46.9939Q40.5479 46.6224 39.6124 45.968Q39.0384 45.5664 37.6535 44.5671Q35.9859 43.3639 35.3966 42.9986Q34.5992 42.5042 34.0092 42.3544Q32.7508 42.0349 31.4923 42.3544Q30.9023 42.5042 30.1049 42.9986Q29.5156 43.3639 27.848 44.5671Q26.4632 45.5664 25.8891 45.968Q24.9536 46.6224 24.3411 46.9939Q23.599 47.4439 23.0424 47.6568Q22.3534 47.9203 21.7636 47.8953Q20.8276 47.8557 20.0239 47.4168Q19.1986 46.966 18.7146 46.2055Q18.3887 45.6933 18.3409 44.9601Q18.3041 44.3962 18.4292 43.5812Q18.5304 42.9217 18.7729 41.8802Q18.9209 41.2442 19.3083 39.6983L19.3083 39.6983L19.472 39.0446Q19.8639 37.4809 19.9542 36.952Q20.0714 36.2665 20.0004 35.8302Q19.9008 35.2183 19.5817 34.6636Q19.3466 34.255 18.7869 33.7382Q18.3638 33.3474 17.0204 32.2652L16.0906 31.5162Q14.5126 30.2449 13.88 29.712Q12.8424 28.8378 12.2614 28.2373Q11.5355 27.487 11.2145 26.8522Q10.7983 26.0293 10.9419 25.2272Q11.0467 24.6415 11.3603 24.1231Q11.7695 23.4466 12.6109 23.0412Q13.2752 22.7212 14.3448 22.517Q15.2162 22.3506 16.6447 22.209Q17.5193 22.1224 19.6639 21.9523Q21.9807 21.7686 22.7511 21.6491Q23.7943 21.4873 24.3854 21.1718Q24.7576 20.9732 25.078 20.716Q25.5699 20.3214 26.0239 19.5224Q26.2526 19.12 26.5591 18.4745Q26.7567 18.0585 27.2201 17.0355L27.2201 17.0355L29.0419 17.8608L29.0419 17.8608Q28.5711 18.9001 28.3658 19.3324Q28.0277 20.0443 27.7628 20.5105Q27.1198 21.642 26.3297 22.2759Q25.8638 22.6498 25.327 22.9363Q24.4364 23.4116 23.0577 23.6254Q22.483 23.7146 21.619 23.7958Q21.0904 23.8455 19.822 23.946Q17.697 24.1146 16.8419 24.1993Q15.5029 24.3319 14.7199 24.4815Q13.3191 24.7489 13.0716 25.1582Q12.9501 25.3591 12.9106 25.5795Q12.8423 25.9614 13.6988 26.8466Q14.2089 27.3739 15.1686 28.1825Q15.7844 28.7012 17.3453 29.9587L18.2751 30.7077Q19.671 31.8323 20.1437 32.2688Q20.9278 32.9928 21.3152 33.6662Q21.8163 34.5371 21.9744 35.509Q22.099 36.2745 21.9257 37.2888Q21.8224 37.893 21.4121 39.5308L21.2483 40.1844L21.2483 40.1844Q20.865 41.7141 20.7208 42.3336Q20.4957 43.3007 20.4061 43.8846Q20.3141 44.4839 20.3366 44.8298Q20.3511 45.0519 20.402 45.1318Q20.6094 45.4577 20.9826 45.6615Q21.3775 45.8772 21.8481 45.8971Q22.2637 45.9147 23.3041 45.2838Q23.8608 44.9462 24.7426 44.3292Q25.3045 43.9361 26.6778 42.9453Q28.4022 41.701 29.0511 41.2987Q30.1109 40.6417 31.0001 40.4159Q32.7508 39.9715 34.5014 40.4159Q35.3906 40.6417 36.4504 41.2987Q37.0993 41.701 38.8237 42.9453Q40.197 43.9361 40.7589 44.3292Q41.6408 44.9462 42.1974 45.2838Q43.2378 45.9147 43.6534 45.8971Q44.124 45.8772 44.5189 45.6615Q44.8922 45.4577 45.0995 45.1318Q45.1504 45.0519 45.1649 44.8299Q45.1874 44.4839 45.0955 43.8846Q45.0058 43.3008 44.7807 42.3336Q44.6365 41.714 44.2532 40.1844L44.2532 40.1844L44.0894 39.5308Q43.6791 37.893 43.5758 37.2888Q43.4025 36.2745 43.5271 35.509Q43.6852 34.5371 44.1863 33.6662Q44.5737 32.9928 45.3578 32.2688Q45.8305 31.8323 47.2264 30.7077L48.1562 29.9587L48.1562 29.9587Q49.7172 28.7012 50.3329 28.1824Q51.2926 27.3739 51.8027 26.8466Q52.6592 25.9614 52.5909 25.5795Q52.5514 25.3591 52.4299 25.1582Q52.1824 24.7489 50.7816 24.4815Q49.9986 24.3319 48.6596 24.1993Q47.8045 24.1146 45.6795 23.946Q44.4111 23.8455 43.8825 23.7958Q43.0185 23.7146 42.4438 23.6254Q41.0651 23.4116 40.1745 22.9363Q39.6377 22.6498 39.1718 22.2759Q38.3817 21.642 37.7387 20.5105Q37.4738 20.0443 37.1357 19.3324Q36.9305 18.9001 36.4596 17.8608L36.4596 17.8608Q35.643 16.058 35.2971 15.3387Q34.7583 14.2183 34.3696 13.587Q33.9718 12.9408 33.6358 12.6376Q33.3799 12.4067 33.1334 12.3603Q32.7508 12.2882 32.3681 12.3603Q32.1216 12.4067 31.8657 12.6376Q31.5297 12.9408 31.1319 13.587Q30.7432 14.2183 30.2044 15.3387Q29.8586 16.0579 29.0419 17.8608L27.2201 17.0355ZM27.2201 17.0355L28.131 17.4481L27.2201 17.0355L27.2201 17.0355Z">
</path>
</svg>
