<svg xmlns="http://www.w3.org/2000/svg" xmlns:xlink="http://www.w3.org/1999/xlink" width="120" height="120" viewBox="0 0 120 120" fill="none">
<circle cx="60" cy="60" r="60"   fill="#FFFFFF" >
</circle>
<path   fill="rgba(0, 0, 0, 1)"  d="M23 89L23 85C23 75.6112 30.6112 68 40 68L56 68C65.3888 68 73 75.6112 73 85L73 89L71 89L71 85C71 76.7157 64.2843 70 56 70L40 70C31.7157 70 25 76.7157 25 85L25 89L23 89ZM72 56C78.0751 56 83 51.0751 83 45C83 38.9249 78.0751 34 72 34L72 32C79.1797 32 85 37.8203 85 45C85 52.1797 79.1797 58 72 58L72 56ZM95 89L95 85C95 76.7157 88.2843 70 80 70L78 70L78 68L80 68C89.3888 68 97 75.6112 97 85L97 89L95 89ZM61 45C61 52.1797 55.1797 58 48 58C40.8203 58 35 52.1797 35 45C35 37.8203 40.8203 32 48 32C55.1797 32 61 37.8203 61 45L59 45C59 38.9249 54.0751 34 48 34C41.9249 34 37 38.9249 37 45C37 51.0751 41.9249 56 48 56C54.0751 56 59 51.0751 59 45L61 45Z">
</path>
</svg>
