<svg xmlns="http://www.w3.org/2000/svg" xmlns:xlink="http://www.w3.org/1999/xlink" width="120" height="120" viewBox="0 0 120 120" fill="none">
<circle cx="60" cy="60" r="60"   fill="#FFFFFF" >
</circle>
<path   fill="rgba(0, 0, 0, 1)"  d="M35.2917 88.1667L35.2917 84.7083C35.2917 74.6061 43.4812 66.4167 53.5834 66.4167L67.4167 66.4167C77.519 66.4167 85.7084 74.6061 85.7084 84.7083L85.7084 88.1667L83.7084 88.1667L83.7084 84.7083C83.7084 75.7107 76.4144 68.4167 67.4167 68.4167L53.5834 68.4167C44.5858 68.4167 37.2917 75.7107 37.2917 84.7083L37.2917 88.1667L35.2917 88.1667ZM75.3334 43.2083C75.3334 51.4006 68.6923 58.0417 60.5001 58.0417C52.3079 58.0417 45.6667 51.4006 45.6667 43.2083C45.6667 35.0161 52.3079 28.375 60.5001 28.375C68.6923 28.375 75.3334 35.0161 75.3334 43.2083L73.3334 43.2083C73.3334 36.1207 67.5877 30.375 60.5001 30.375C53.4124 30.375 47.6667 36.1207 47.6667 43.2083C47.6667 50.296 53.4124 56.0417 60.5001 56.0417C67.5877 56.0417 73.3334 50.296 73.3334 43.2083L75.3334 43.2083ZM36.2917 89.1667C35.7395 89.1667 35.2917 88.7189 35.2917 88.1667C35.2917 87.6144 35.7395 87.1667 36.2917 87.1667C36.844 87.1667 37.2917 87.6144 37.2917 88.1667C37.2917 88.7189 36.844 89.1667 36.2917 89.1667ZM84.7084 89.1667C84.1561 89.1667 83.7084 88.7189 83.7084 88.1667C83.7084 87.6144 84.1561 87.1667 84.7084 87.1667C85.2607 87.1667 85.7084 87.6144 85.7084 88.1667C85.7084 88.7189 85.2607 89.1667 84.7084 89.1667Z">
</path>
</svg>
