<svg xmlns="http://www.w3.org/2000/svg" xmlns:xlink="http://www.w3.org/1999/xlink" width="171" height="89" viewBox="0 0 171 89" fill="none">
<path   fill="rgba(0, 0, 0, 1)"  d="M29.4938 40.6189L48.0355 22.0773L40.9644 15.0062L22.4227 33.5479L29.4938 40.6189ZM40.9644 22.0773L59.5061 40.6189L66.5771 33.5479L48.0355 15.0062L40.9644 22.0773ZM39.4999 18.5417L39.4999 51.9168L49.4999 51.9168L49.4999 18.5417L39.4999 18.5417ZM40.9644 15.0062L44.4999 18.5417L48.0355 15.0062C45.6784 13.0536 43.3214 13.0536 40.9644 15.0062ZM49.4999 51.9168C49.4999 49.1553 47.2613 46.9168 44.4999 46.9168C41.7385 46.9168 39.4999 49.1553 39.4999 51.9168C39.4999 54.6782 41.7385 56.9168 44.4999 56.9168C47.2613 56.9168 49.4999 54.6782 49.4999 51.9168Z">
</path>
<path   fill="rgba(0, 0, 0, 1)"  d="M23.5417 59.3333L23.5417 63.0416C23.5417 64.3763 24.6237 65.4583 25.9584 65.4583L63.0417 65.4583C64.3764 65.4583 65.4584 64.3763 65.4584 63.0416L65.4584 59.3333L75.4584 59.3333L75.4584 63.0416C75.4584 69.8991 69.8993 75.4583 63.0417 75.4583L25.9584 75.4583C19.1009 75.4583 13.5417 69.8991 13.5417 63.0416L13.5417 59.3333L23.5417 59.3333Z">
</path>
<g >
<path     fill="#000000"  d="M98.8 36.12L85.68 36.12L85.68 32.4L98.8 32.4L98.8 7.88L104.16 7.88L104.16 16.68L116.88 16.68L116.88 20.4L104.16 20.4L104.16 32.4L119.48 32.4L119.48 36.12L104.16 36.12L98.8 36.12ZM134.8 19.68L132.12 19.68L132.12 15.76L135.96 15.76L136.6 13.64L132.12 13.64L132.12 9.68L137.76 9.68L138.4 7.56L143.76 7.56L143.2 9.68L157 9.68L157 13.64L142.16 13.64L141.6 15.76L156.92 15.76L156.92 19.68L140.56 19.68L139.84 22.44L156.92 22.44L152.84 35.56L148.96 35.56L147 35.56L142.36 35.56L142.88 36.44L136.84 36.44L132.84 30.4L139.36 30.4L140.08 31.64L148.2 31.64L149.84 26.36L132.8 26.36L134.8 19.68ZM125.2 18.4L121.8 18.4L126.24 7.56L131.64 7.56L128.88 14.28L130.36 14.28L130.36 36.44L125.2 36.44L125.2 18.4ZM99.4 65.28L85.12 65.28L85.12 61.76L112.4 61.76L112.4 59.12L87.48 59.12L87.48 55.64L112.4 55.64L112.4 54.68Q112.4 54.16 112.04 53.8Q111.68 53.44 111.12 53.44L86.6 53.44L86.6 49.92L113.88 49.92Q114.8 49.92 115.6 50.26Q116.4 50.6 117 51.2Q117.6 51.8 117.94 52.6Q118.28 53.4 118.28 54.32L118.28 61.76L120.04 61.76L120.04 65.28L105.52 65.28L105.52 67.48L110.8 67.48L112.12 69.28L113.92 66.64L120.04 66.64L116.08 72.76L114.68 72.72L119.2 78.84L112.96 78.84L105.52 68.8L105.52 74.24Q105.52 75.16 105.16 75.98Q104.8 76.8 104.2 77.42Q103.6 78.04 102.78 78.4Q101.96 78.76 101.04 78.76L95.12 78.76L96.72 75.2L98.12 75.2Q98.68 75.2 99.04 74.84Q99.4 74.48 99.4 73.92L99.4 65.28ZM91.48 78.84L85.12 78.84L90.28 72.24L96.64 72.24L91.48 78.84ZM92.32 66.32L97 70.96L90.64 70.96L85.96 66.32L92.32 66.32ZM155.88 74.44Q155.88 75.36 155.54 76.16Q155.2 76.96 154.6 77.56Q154 78.16 153.2 78.5Q152.4 78.84 151.48 78.84L123.36 78.84L123.36 78.8L123.36 68.24L123.36 65.16L123.36 64.72L155.88 64.72L155.88 65.16L155.88 68.24L155.88 74.44ZM129.16 68.24L129.16 69.72L150.08 69.72L150.08 68.24L129.16 68.24ZM148.8 75.24Q149.36 75.24 149.72 74.88Q150.08 74.52 150.08 74L150.08 73.2L129.16 73.2L129.16 75.24L148.8 75.24ZM122.2 51.72L135.8 51.72L135.16 49.92L142.2 49.92L142.84 51.72L156.44 51.72L156.44 55.64L122.2 55.64L122.2 51.72ZM156.96 63.2L121.8 63.2L121.8 59.24L126.8 59.24L124.32 56.76L130.92 56.76L133.4 59.24L145.16 59.24L147.64 56.76L154.24 56.76L151.76 59.24L156.96 59.24L156.96 63.2Z">
</path>
</g>
</svg>
