<svg xmlns="http://www.w3.org/2000/svg" xmlns:xlink="http://www.w3.org/1999/xlink" width="417" height="250" viewBox="0 0 417 250" fill="none">
<rect x="0" y="0" width="417" height="250"   fill="#CCCCCC" >
</rect>
<path d="M220.625 64.875L196.375 64.875C185.053 64.875 175.875 74.0532 175.875 85.375L175.875 109.625C175.875 120.947 185.053 130.125 196.375 130.125L220.625 130.125C231.947 130.125 241.125 120.947 241.125 109.625L241.125 85.375C241.125 74.0532 231.947 64.875 220.625 64.875ZM209.5 79.375L209.5 96.5L226.625 96.5L226.625 98.5L209.5 98.5L209.5 115.625L207.5 115.625L207.5 98.5L190.375 98.5L190.375 96.5L207.5 96.5L207.5 79.375L209.5 79.375Z" fill-rule="evenodd"  fill="#222222" fill-opacity="0.8">
</path>
<g >
<path     fill="#000000"  d="M91.15 166.1L91.15 168.35L114.7 168.35L114.7 173.3L91.15 173.3L91.15 176.2L116.6 176.2L116.6 189.3Q116.6 190.25 116.225 191.1Q115.85 191.95 115.2 192.6Q114.55 193.25 113.675 193.625Q112.8 194 111.85 194L73.55 194L73.55 176.2L83.4 176.2L83.4 166.1L91.15 166.1ZM109.7 181.1L80.45 181.1L80.45 189.05L108.9 189.05Q109.25 189.05 109.475 188.825Q109.7 188.6 109.7 188.3L109.7 181.1ZM73 201.9L75.6 195.55L83.25 195.55L80.7 201.9L73 201.9ZM85.35 195.55L93 195.55L95.6 201.9L87.95 201.9L85.35 195.55ZM96.05 195.55L103.7 195.55L106.25 201.9L98.6 201.9L96.05 195.55ZM114.4 195.55L116.95 201.9L109.3 201.9L106.75 195.55L114.4 195.55ZM137.35 178L137.35 173.65L119.75 173.65L119.75 168.5L137.35 168.5L137.35 165.95L144.65 165.95L144.65 168.5L162.25 168.5L162.25 173.65L144.65 173.65L144.65 178L162.9 178L162.9 183.15L144.65 183.15L144.65 196.85L153.9 196.85Q154.35 196.85 154.65 196.525Q154.95 196.2 154.95 195.75L154.95 187.35L161.7 187.35L161.7 198.25Q161.7 199.8 160.6 200.9Q159.5 202 157.95 202L154.95 202L120.3 202L120.3 197.2L120.3 187.35L127.15 187.35L127.15 195.7L127.15 196.85L137.35 196.85L137.35 183.15L119.1 183.15L119.1 178L137.35 178ZM182.25 201.65L165.85 201.65L165.85 197L182.25 197L182.25 166.35L188.95 166.35L188.95 177.35L204.85 177.35L204.85 182L188.95 182L188.95 197L208.1 197L208.1 201.65L188.95 201.65L182.25 201.65ZM227.25 181.1L223.9 181.1L223.9 176.2L228.7 176.2L229.5 173.55L223.9 173.55L223.9 168.6L230.95 168.6L231.75 165.95L238.45 165.95L237.75 168.6L255 168.6L255 173.55L236.45 173.55L235.75 176.2L254.9 176.2L254.9 181.1L234.45 181.1L233.55 184.55L254.9 184.55L249.8 200.95L244.95 200.95L242.5 200.95L236.7 200.95L237.35 202.05L229.8 202.05L224.8 194.5L232.95 194.5L233.85 196.05L244 196.05L246.05 189.45L224.75 189.45L227.25 181.1ZM215.25 179.5L211 179.5L216.55 165.95L223.3 165.95L219.85 174.35L221.7 174.35L221.7 202.05L215.25 202.05L215.25 179.5ZM257.1 202.05L257.1 200.3L257.1 165.95L258.3 165.95L264 165.95L294 165.95L294 165.9L300.9 165.9L300.9 196.55Q300.9 197.7 300.475 198.7Q300.05 199.7 299.3 200.45Q298.55 201.2 297.55 201.625Q296.55 202.05 295.45 202.05L257.1 202.05ZM264 170.9L264 197.1L292.4 197.1Q293.1 197.1 293.55 196.65Q294 196.2 294 195.55L294 170.9L264 170.9ZM266.45 187.6L291.7 189.15L291.7 192.25L266.45 190.75L266.45 187.6ZM266.45 191.7L291.7 193.25L291.7 196.65L266.45 195.1L266.45 191.7ZM266 183.55Q267.5 183.4 268.925 183.25Q270.35 183.1 271.7 182.85Q270.3 182 269.075 180.95Q267.85 179.9 266.8 178.55L274.1 178.55Q275.25 179.4 276.425 180Q277.6 180.6 278.85 181.1Q282.15 179.9 285 177.5L272.8 177.5L269.6 177.5L266.45 177.5L268.8 171.8L275.15 171.8L274.6 173.15L291.7 173.15L291.7 177.5Q290.55 179.25 289.1 180.55Q287.65 181.85 286.05 182.85Q287.35 183.1 288.775 183.25Q290.2 183.4 291.7 183.55L291.7 187.55Q288.25 187.3 285.025 186.9Q281.8 186.5 278.85 185.75Q275.9 186.5 272.675 186.9Q269.45 187.3 266 187.55L266 183.55ZM303 180.05L309.25 165.95L316.4 165.95L312.55 174.7L313.9 174.7L313.9 202L307.8 202L307.8 180.05L303 180.05ZM344.25 190.05L342.05 190.05L346.6 201.1L340.4 201.1L336.5 191.7L336.5 196.65Q336.5 197.55 336.125 198.5Q335.75 199.45 335.05 200.225Q334.35 201 333.35 201.5Q332.35 202 331.05 202L325.25 202L326.45 198.75L327.85 198.75L327.9 198.75Q328.55 198.7 328.975 198.225Q329.4 197.75 329.4 197.1L329.4 196.6L314.8 201.6L314.8 197.9L329.4 192.9L329.4 191.25L316.1 195.8L316.1 192.05L329.4 187.55L329.4 187L329.15 186.15L316.1 190.25L316.1 186.55L326.45 183.3L316.55 183.3L316.55 183.1L316.55 179.9L316.55 177.35L316.55 174.5L316.55 174L335.9 174L336.55 172.1L325.2 172.1L322.65 172.1L318.3 172.1L320.6 166.05L327.55 166.05L326.8 167.95L338.05 167.95L340 167.95L344.95 167.95L342.8 174L346.85 174L346.85 174.5L346.85 177.35L346.85 178.6Q346.85 179.6 346.475 180.45Q346.1 181.3 345.475 181.925Q344.85 182.55 343.975 182.925Q343.1 183.3 342.15 183.3L335.1 183.3L336 186.3L339.95 186.3L340.7 184.8L346.95 184.8L344.25 190.05ZM335.1 177.35L335.1 179.9L338.5 179.9Q339.15 179.9 339.6 179.45Q340.05 179 340.05 178.35L340.05 177.35L335.1 177.35ZM323.35 179.9L328.3 179.9L328.3 177.35L323.35 177.35L323.35 179.9Z">
</path>
</g>
</svg>
